<?xml version="1.0" standalone="no"?><!DOCTYPE svg PUBLIC "-//W3C//DTD SVG 1.1//EN" "http://www.w3.org/Graphics/SVG/1.1/DTD/svg11.dtd"><svg t="1582947995586" class="icon" viewBox="0 0 1024 1024" version="1.1" xmlns="http://www.w3.org/2000/svg" p-id="13928" xmlns:xlink="http://www.w3.org/1999/xlink" width="200" height="200"><defs><style type="text/css"></style></defs><path d="M512 512m-512 0a512 512 0 1 0 1024 0 512 512 0 1 0-1024 0Z" fill="#E7F1FC" p-id="13929"></path><path d="M768 605.866667c-12.8-68.266667-61.866667-110.933333-61.866667-110.933334 6.4-61.866667-19.2-72.533333-19.2-72.533333-4.266667-192-170.666667-187.733333-174.933333-187.733333-4.266667 0-170.666667-4.266667-174.933333 185.6 0 0-25.6 10.666667-19.2 72.533333 0 0-49.066667 44.8-61.866667 110.933333 0 0-6.4 115.2 57.6 14.933334 0 0 14.933333 38.4 40.533333 72.533333 0 0-46.933333 14.933333-42.666666 55.466667 0 0-2.133333 44.8 100.266666 42.666666 0 0 70.4-6.4 91.733334-34.133333h17.066666c21.333333 29.866667 91.733333 34.133333 91.733334 34.133333 100.266667 2.133333 100.266667-42.666667 100.266666-42.666666 4.266667-40.533333-42.666667-55.466667-42.666666-55.466667 25.6-34.133333 40.533333-72.533333 40.533333-72.533333 64 100.266667 57.6-12.8 57.6-12.8z" fill="#88BEF9" p-id="13930"></path></svg>