<?xml version="1.0" standalone="no"?><!DOCTYPE svg PUBLIC "-//W3C//DTD SVG 1.1//EN" "http://www.w3.org/Graphics/SVG/1.1/DTD/svg11.dtd"><svg t="1582947892792" class="icon" viewBox="0 0 1024 1024" version="1.1" xmlns="http://www.w3.org/2000/svg" p-id="9718" xmlns:xlink="http://www.w3.org/1999/xlink" width="200" height="200"><defs><style type="text/css"></style></defs><path d="M511.3 513.82m-450 0a450 450 0 1 0 900 0 450 450 0 1 0-900 0Z" fill="#EAF8ED" p-id="9719"></path><path d="M368.46 421.74c14.47 0 24.16-9.73 24.16-24.21-0.01-14.65-9.68-24.13-24.16-24.13-14.52 0-29.2 9.48-29.2 24.13 0 14.48 14.68 24.21 29.2 24.21zM673.4 552.58c14.51 0 24.3-9.62 24.3-19.36 0-9.69-9.77-19.43-24.3-19.43-9.55 0-19.23 9.76-19.23 19.43 0 9.74 9.69 19.36 19.23 19.36zM566.95 552.58c14.55 0 24.17-9.62 24.17-19.36 0-9.69-9.62-19.43-24.17-19.43-9.69 0-19.38 9.76-19.38 19.43 0.01 9.74 9.7 19.36 19.38 19.36zM503.98 421.74c14.52 0 24.23-9.73 24.23-24.21 0-14.65-9.69-24.12-24.23-24.12-14.55 0-29.14 9.48-29.14 24.12 0.03 14.49 14.62 24.21 29.14 24.21z" fill="#33BD51" p-id="9720"></path><path d="M304.76 589.77l-17.31 52.04a8.883 8.883 0 0 0 2.59 9.46 8.897 8.897 0 0 0 5.79 2.15c1.34 0 2.7-0.31 3.95-0.94l64.99-32.53 8.01 1.63c20.01 4.11 37.29 7.68 58.58 7.68 6.26 0 23.51-2.29 24.96-4.13 23.44 58.65 88.03 100.98 164.04 100.98 19.47 0 39.18-4.69 56.86-9.12l50.1 27.39c1.33 0.72 2.79 1.1 4.23 1.1 1.98 0 3.96-0.67 5.55-1.96a8.796 8.796 0 0 0 2.89-9.39l-12.8-42.55c42.9-33.9 66.43-74.46 66.43-114.83 0-76.59-71.05-141.86-158.27-148.65 0.12-0.95 0.17-1.94-0.04-2.93-17.49-81.53-105.16-143-203.96-143-109.72 0-199.33 75.19-202.39 168.61v9.92c1.67 49.34 27.76 93.78 75.8 129.07z m463.57-12.79c0 34.43-21.7 69.72-61.12 99.36a8.39 8.39 0 0 0-2.98 9.11l7.94 26.4-32.57-17.82a8.428 8.428 0 0 0-4.03-1.04c-0.68 0-1.37 0.09-2.05 0.27-17.47 4.41-35.55 8.97-53.15 8.97-81.76 0-148.27-56.19-148.27-125.24s66.5-125.22 148.27-125.22c80.19-0.01 147.96 57.33 147.96 125.21zM431.39 305.59c86.91 0 163.86 52.87 179.74 123.2-91.12 1.2-164.86 65.26-164.86 143.94 0 11.44 1.74 22.52 4.66 33.22-0.89-0.22-1.82-0.39-2.81-0.31-5.54 0.48-11.15 0.71-16.72 0.71-18.79 0-34.69-3.25-53.08-7.05l-10.69-2.16a8.202 8.202 0 0 0-5.46 0.73l-46.97 23.51 12.21-36.67a8.51 8.51 0 0 0-3.2-9.67c-47.19-32.89-71.11-72.97-71.11-119.08 0-82.9 79.98-150.37 178.29-150.37z" fill="#33BD51" p-id="9721"></path></svg>